<?xml version="1.0" encoding="utf-8"?>
<!-- Generator: Adobe Illustrator 17.0.0, SVG Export Plug-In . SVG Version: 6.00 Build 0)  -->
<!DOCTYPE svg PUBLIC "-//W3C//DTD SVG 1.1//EN" "http://www.w3.org/Graphics/SVG/1.1/DTD/svg11.dtd">
<svg version="1.1" id="Ebene_1" xmlns="http://www.w3.org/2000/svg" xmlns:xlink="http://www.w3.org/1999/xlink" x="0px" y="0px"
	 width="28px" height="28px" viewBox="0 0 28 28" enable-background="new 0 0 28 28" xml:space="preserve">
<g>
	<path fill="#33393F" d="M5.916,18.293L0,12.355l2.168-8.11l8.076-2.175l5.907,5.938l-2.158,8.11L5.916,18.293z M1.073,12.069
		l5.131,5.151l7.002-1.885l1.875-7.039L9.954,3.144L2.953,5.03L1.073,12.069z"/>
	<g>
		<path fill="#33393F" d="M12.315,25.929l-3.492-3.507l1.284-4.789l4.77-1.284l3.49,3.507l-1.273,4.789L12.315,25.929z"/>
	</g>
	<path fill="#33393F" d="M19.752,20.129l-4.762-4.785l1.737-6.529l6.509-1.753L28,11.847l-1.745,6.529L19.752,20.129z
		 M16.061,15.058l3.978,3.998l5.43-1.464l1.458-5.458l-3.978-3.998l-5.435,1.464L16.061,15.058z"/>
	<g>
		<polygon fill-rule="evenodd" clip-rule="evenodd" fill="#33393F" points="12.443,14.569 6.478,16.178 2.107,11.787 3.702,5.794 
			9.674,4.185 14.045,8.576 		"/>
	</g>
</g>
</svg>
